inDegrees=no
num_controls=7
num_derivatives=13
num_iterations=195
num_multipliers=7
num_parameters=0
num_slacks=7
num_states=26
objective=6.549952
objective_accelerations=0.703225
objective_balance=0.072639
objective_effort=0.549328
objective_height=5.157271
objective_ligament=0.067489
solver_duration=1669.986985
status=Solve_Succeeded
success=true
DataType=double
version=3
OpenSimVersion=4.4-2022-07-23-0e9fedc
endheader
time	/jointset/ground_pelvis/pelvis_tilt/value	/jointset/ground_pelvis/pelvis_tx/value	/jointset/ground_pelvis/pelvis_ty/value	/jointset/hip_r/hip_flexion_r/value	/jointset/hip_r/hip_adduction_r/value	/jointset/hip_r/hip_rotation_r/value	/jointset/back/lumbar_extension/value	/jointset/patellofemoral_r/patellar_flexion_r/value	/jointset/knee_r/knee_flexion_r/value	/jointset/knee_r/knee_adduction_r/value	/jointset/knee_r/knee_rotation_r/value	/jointset/ankle_r/ankle_angle_r/value	/jointset/subtalar_r/subtalar_angle_r/value	/jointset/ground_pelvis/pelvis_tilt/speed	/jointset/ground_pelvis/pelvis_tx/speed	/jointset/ground_pelvis/pelvis_ty/speed	/jointset/hip_r/hip_flexion_r/speed	/jointset/hip_r/hip_adduction_r/speed	/jointset/hip_r/hip_rotation_r/speed	/jointset/back/lumbar_extension/speed	/jointset/patellofemoral_r/patellar_flexion_r/speed	/jointset/knee_r/knee_flexion_r/speed	/jointset/knee_r/knee_adduction_r/speed	/jointset/knee_r/knee_rotation_r/speed	/jointset/ankle_r/ankle_angle_r/speed	/jointset/subtalar_r/subtalar_angle_r/speed	/forceset/tau_hip_flexion_r	/forceset/tau_hip_adduction_r	/forceset/tau_hip_rotation_r	/forceset/tau_knee_flexion_r	/forceset/tau_ankle_angle_r	/forceset/tau_subtalar_angle_r	/forceset/tau_lumbar_extension	lambda_cid13_p0	lambda_cid14_p0	lambda_cid14_p1	lambda_cid14_p2	lambda_cid14_p3	lambda_cid14_p4	lambda_cid14_p5	/jointset/ground_pelvis/pelvis_tilt/accel	/jointset/ground_pelvis/pelvis_tx/accel	/jointset/ground_pelvis/pelvis_ty/accel	/jointset/hip_r/hip_flexion_r/accel	/jointset/hip_r/hip_adduction_r/accel	/jointset/hip_r/hip_rotation_r/accel	/jointset/back/lumbar_extension/accel	/jointset/patellofemoral_r/patellar_flexion_r/accel	/jointset/knee_r/knee_flexion_r/accel	/jointset/knee_r/knee_adduction_r/accel	/jointset/knee_r/knee_rotation_r/accel	/jointset/ankle_r/ankle_angle_r/accel	/jointset/subtalar_r/subtalar_angle_r/accel	gamma_cid13_p0	gamma_cid14_p0	gamma_cid14_p1	gamma_cid14_p2	gamma_cid14_p3	gamma_cid14_p4	gamma_cid14_p5
0.5	-0.1944143402623084	0.01572353623354257	0.8156593074761777	0.9512617838588788	-0.2246587430329848	-0.1182184682974701	-0.3347135596334303	0.8566983673640626	0.8566983673640772	-0.004203990079686394	0.1745324346809378	0.2802307394618651	0.0687850067114919	-0.5117679331338673	-0.1641215503079664	-0.5284777493242734	2.115046064140859	0.001102611390804999	0.2299821803484587	-0.5952850801269253	2.112914955891952	2.112914955892011	-0.4088543369135476	0.0001434220692387227	0.6165658197548529	0.1880484193726451	-0.1381746177405382	-0.01869562905513562	0.01286975852238628	-0.3508319889987679	0.07162172200141828	-0.001565041404384889	0.1765411224407288	-21.65292437323266	-17.88550662213669	-0.8004953806831702	-2.851496941142997	1.323918403264937	-656.6724952028786	62.06177327582444	0.3646436037482088	0.494588116548445	-0.5435861177656588	-1.231112002817167	-0.1617883351547026	-0.6976928958448534	1.65383407132416	-1.471113929748595	-1.471113929748588	0.4635426330564973	-0.0753939940480025	-0.7910571383289602	-0.2735364124623303	-1.265025642992526e-07	1.25686675444746e-07	2.795860471884266e-06	1.124708587496447e-06	-4.085948538742742e-07	-1.586644673965275e-09	1.3824597844043e-06
0.51	-0.1995127494336863	0.0141072983863688	0.8103485935455208	0.9723473767907173	-0.2246562859623803	-0.1159561947446941	-0.3405832160089041	0.8777508949006197	0.8777508949006204	-0.008270030627714777	0.1745328089232574	0.2863558482699283	0.07065078417921637	-0.5078384690599708	-0.1591041784382606	-0.5335422540488891	2.101787145791374	-0.0006045670131959764	0.2224226908523512	-0.5785681059760067	2.09730303505256	2.097303035052654	-0.4043870165815638	-3.69189284045068e-05	0.6083775719301128	0.185079994705581	-0.1454831073963083	-0.01648912630222968	0.01286024889144914	-0.3546778125246575	0.06858820530214528	-0.000828204840947883	0.1830055056178292	-20.26382878050912	-19.11643039762619	-0.8511270609047425	-2.666247829770998	1.693825756113889	-662.0213365074086	61.85734233929952	0.4184117218203618	0.5085326818756457	-0.4694856116228123	-1.416088074389661	-0.1739854755851946	-0.7927127485956338	1.692342435734693	-1.649330667319471	-1.649330667314174	0.4336660444556887	0.0154804276172018	-0.8445322138304125	-0.3121722848573907	-1.416241642749417e-07	3.136388368343663e-09	2.169344544619098e-06	9.408583947602869e-08	-2.535853040095041e-07	-1.176814570302545e-07	1.249766036971303e-06
0.52	-0.204569601181803	0.01254187844983106	0.804990913975255	0.9932918192743859	-0.2246706612523286	-0.1137710432412994	-0.346283359973117	0.8986386833275228	0.8986386833275158	-0.0122923301101903	0.1745323466717736	0.2923967098778874	0.07248614204206436	-0.5034564484816798	-0.1539579681807628	-0.5378708772460309	2.086815974506872	-0.002263860719691065	0.2145577704721661	-0.5613825978747341	2.079967133961771	2.079967133961901	-0.4001061238021228	-2.387671646061559e-05	0.599716379734017	0.1819644983973586	-0.152791597052079	-0.01428262354932673	0.01285073926055411	-0.3585236360505461	0.06555468860287088	-9.136827751585219e-05	0.189469888794929	-18.8767518915524	-20.35249517792555	-0.9015549932322792	-2.482291283119826	2.066372042280888	-667.4459382131486	61.69129533015763	0.4551549046270604	0.5203557941068169	-0.3964098122708828	-1.573562589820661	-0.1522113956535279	-0.7587790726603648	1.747540861394939	-1.815909980027712	-1.815909980027711	0.4262571225479447	-0.03671735213057979	-0.8856460126000976	-0.3029507406940025	-1.454236268789435e-07	-3.216927819787479e-08	1.986466393321911e-06	-2.143576036729004e-07	-2.088682573922251e-07	-1.496114158100689e-07	1.208489286047084e-06
0.53	-0.2095804027502267	0.01102845632327071	0.7995936897517636	1.014078059842641	-0.22470163213814	-0.1116645458764488	-0.3518095962705115	0.9193445462053412	0.9193445462053508	-0.01627129419448825	0.1745322430795116	0.2983484770778619	0.07428917466413212	-0.4986350305463511	-0.148715358907953	-0.5414454732717544	2.070157854744767	-0.003928420404678981	0.2067534906624357	-0.543810197906719	2.060921051178658	2.060921051178704	-0.3956622255761926	4.183576025647879e-06	0.5905522288536768	0.1786025229595362	-0.159975287933895	-0.01306326878078838	0.01281041335857833	-0.3624458542131181	0.06221970348502698	0.001209469707305078	0.1957828115469287	-17.49726944656695	-21.66618843185057	-0.6599547046512271	-2.414197685137955	2.571179081267106	-672.9823039894569	62.17925534558028	0.5059540055120376	0.5278411512836146	-0.3187436471877668	-1.753086973879199	-0.1732239333653362	-0.7896918274402619	1.77025911910122	-1.991586507078561	-1.991586507091031	0.4573828988123759	0.02268723953338165	-0.9445801449683175	-0.358493080196884	-1.439070343699761e-07	-5.982982631418328e-08	1.758462534512344e-06	-4.599342498093386e-07	-1.654497071225903e-07	-1.669058592804185e-07	1.1130150131045e-06
0.54	-0.2145409263857915	0.009567785820921732	0.7941645677381221	1.03468948915238	-0.2247491777564897	-0.1096357791881593	-0.3571584746573064	0.9398514224394023	0.9398514224394298	-0.02020503395128922	0.1745324439940601	0.3042060466651895	0.07605745310484753	-0.4934008619099761	-0.1434076433384888	-0.5442504352760597	2.051853722803717	-0.005578807227420186	0.1990116351602698	-0.5259110157548522	2.040169805210528	2.040169805210491	-0.3910612583023882	3.70246523180646e-05	0.5808768572046429	0.1750136621268921	-0.1671589788157102	-0.01184391401225773	0.01277008745661806	-0.3663680723756897	0.05888471836718025	0.002510307692114022	0.2020957342989296	-16.12853474335669	-22.98281832051504	-0.4129347354219283	-2.353745488513835	3.068759186227885	-678.5758026697996	62.72492288179434	0.5377050448363145	0.5333770534376953	-0.2424830079872364	-1.902765025609415	-0.1493768232041962	-0.7462942111474785	1.812897298165274	-2.156942617030856	-2.156942617030837	0.4576709321227763	-0.0357611953693318	-0.9878901663388074	-0.3483278196583626	-1.365088489700641e-07	-7.903194550718704e-08	1.480532361008229e-06	-6.359561418042969e-07	-1.234677911099238e-07	-1.680078177275303e-07	9.575775243118116e-07
